<svg width="600" height="615" viewBox="0 0 600 615" fill="none" xmlns="http://www.w3.org/2000/svg">
<path d="M273.363 0.0724767C278.246 -0.296395 283.779 0.791778 288.43 2.22451C308.531 8.4182 312.669 26.1928 319.453 43.5155C321.066 47.6351 323.023 51.5351 325.084 55.4401C329.322 43.3017 332.882 26.7369 344.405 19.3578C352.901 13.9169 364.246 14.5591 373.681 16.6365C389.924 20.2137 405.956 25.9094 421.887 30.7207C434.017 34.3843 449.446 37.8961 460.784 43.2313C465.629 45.5116 470.738 48.5313 473.61 53.2051C484.467 70.8724 470.346 97.3146 466.334 115.658C476.309 109.39 483.141 101.037 495.807 99.0617C504.128 97.764 512.88 100.126 519.611 105.148C530.727 113.444 542.827 131.456 551.592 142.719C560.247 153.84 569.766 164.932 577.137 176.969C580.421 182.331 584.464 189.721 585.167 196.061C585.604 200 584.161 204.628 582.627 208.226C577.188 220.98 567.412 227.892 557.03 236.341C554.414 238.469 551.408 240.585 549.302 243.21C549.915 244.222 550.61 244.37 551.743 244.548C554.846 245.037 558.163 244.748 561.305 244.832C568.938 245.035 577.587 246.881 583.655 251.771C591.373 257.991 594.418 266.711 595.453 276.232C597.255 292.813 597.414 309.339 598.2 325.964C598.91 340.985 601.386 358.085 598.954 372.899C598.06 378.223 595.805 383.225 592.411 387.423C582.743 399.289 568.302 400.002 554.156 400.667C548.423 400.93 542.698 401.34 536.986 401.897C540.337 403.735 543.672 405.649 546.841 407.791C554.661 413.076 560.548 420.411 562.278 429.862C563.403 436.008 563.499 443.147 561.706 449.181C559.699 455.934 555.474 462.381 551.992 468.486C542.273 485.298 531.969 501.766 521.1 517.858C513.033 529.681 504.399 541.828 489.469 544.561C485.596 545.269 481.724 545.623 477.825 544.909C462.49 542.101 440.709 525.883 427.618 516.879C431.691 527.309 437.359 536.765 437.927 548.216C438.382 557.402 436.768 565.034 430.377 571.944C426.932 575.668 422.76 578.716 418.347 581.189C408.272 586.836 397.335 590.407 386.7 594.8C372.65 600.606 358.471 607.323 343.868 611.591C338.726 613.093 333.69 613.985 328.339 614.21C324.063 614.06 319.647 613.69 315.536 612.441C298.656 607.315 293.294 586.74 287.65 572.265C285.994 568.018 284.017 563.953 281.842 559.953C277.876 570.296 277.669 582.362 269.947 591.088C265.118 596.546 256.629 600.884 249.308 601.185C244.165 601.396 238.493 600.446 233.476 599.377C221.55 596.833 209.655 592.791 197.939 589.368C184.818 585.534 171.133 582.162 158.454 577.065C153.069 574.9 146.104 571.965 141.918 567.81C138.444 564.362 136.435 559.414 135.091 554.803C131.04 540.899 134.181 530.883 138.178 517.443C139.237 513.88 140.631 510.124 140.698 506.377L140.209 505.889C136.798 506.738 134.116 510.427 131.464 512.569C125.434 517.436 115.786 521.418 107.988 521.725C101.56 521.978 92.4045 518.905 87.6301 514.524C83.6262 510.85 80.0632 506.431 76.4969 502.334C68.4119 492.872 60.4384 483.315 52.5773 473.667C45.0422 464.551 29.3174 447.066 24.32 437.586C21.9257 433.044 21.0119 427.482 20.845 422.403C20.0511 398.182 39.4144 390.54 53.6931 375.422C44.4696 376.397 32.0487 377.967 23.6594 372.884C15.9743 368.228 11.4707 358.56 9.39745 350.158C6.36683 337.87 5.81018 324.737 4.47889 312.178C2.36374 292.235 -1.47839 271.331 0.595671 251.264C1.06179 246.757 2.25727 242.439 4.64153 238.556C17.692 217.3 51.0062 221.652 72.2046 216.754C61.4411 208.639 47.0869 205.271 42.16 191.253C37.783 178.798 40.2804 169.637 45.7766 158.085C51.0313 147.044 57.7188 136.653 63.9519 126.147C69.6937 116.469 75.5269 106.974 81.7181 97.5745C85.0346 92.5386 88.2337 87.2863 92.3056 82.8138C96.2458 78.4854 100.432 75.1706 106.002 73.2281C123.189 67.2365 140.752 77.8826 155.4 85.976C162.255 89.7636 169.121 93.506 176.189 96.882C173.108 87.5278 167.636 80.671 165.933 70.3769C164.714 63.0104 164.849 52.9762 169.502 46.7767C173.436 41.5379 179.094 38.4133 184.803 35.4674C201.817 26.6891 220.857 21.1644 238.638 14.0653C249.621 9.68074 261.761 1.76342 273.363 0.0724767Z" fill="black"/>
<path d="M300.891 205.859C320.746 211.087 340.502 216.684 360.148 222.647C363.616 230.425 368.434 236.689 373.249 243.628C380.046 253.624 387.093 263.447 394.38 273.09C393.733 291.491 395.527 309.89 395.812 328.289C392.139 334.673 387.56 340.715 383.52 346.892C376.235 358.006 369.178 369.267 362.353 380.669C356.209 383.498 349.391 385.486 343.017 387.782L306.51 401.06L301.605 399.944C284.922 396.061 267.79 393.877 250.989 390.543C244.067 382.427 237.45 374.05 230.539 365.921C223.947 358.167 217.059 350.645 210.585 342.797C209.458 323.174 205.85 303.772 204.608 284.141C215.225 267.468 224.392 249.935 234.468 232.943C251.981 226.589 269.196 218.649 286.365 211.399C291.146 209.38 296.097 207.846 300.891 205.859Z" fill="white"/>
<path d="M397.133 361.992C398.805 363.723 399.79 376.754 400.706 380.086C408.015 406.681 431.531 406.883 454.512 405.818L483.257 404.371C488.426 404.112 494.323 403.378 499.418 404.323C502.912 404.971 506.988 407.845 510.076 409.592C514.961 412.372 519.828 415.187 524.674 418.036C534.133 423.582 540.605 427.376 543.706 438.575C542.909 442.694 541.654 446.293 539.778 450.042C535.076 459.432 528.823 468.386 523.282 477.329C515.12 490.5 507.241 504.79 497.369 516.736C494.257 520.017 490.96 523.218 486.45 524.402C483.638 525.141 480.508 525.234 477.775 524.183C470.083 521.222 463.211 516.326 456.301 511.911L433.108 497.138C419.199 488.329 404.83 480.356 390.758 471.827C379.453 464.975 359.217 454.586 356.155 440.6C355.481 437.524 355.858 434.143 356.705 431.135C361.807 413.005 386.301 378.159 397.133 361.992Z" fill="white"/>
<path d="M117.152 91.4688C121.385 91.7655 125.216 93.1438 129.077 94.8263C137.261 98.3935 145.032 102.908 152.853 107.191C159.817 110.969 166.824 114.669 173.87 118.291L201.21 132.583C215.883 140.089 230.297 147.406 243.968 156.679C245.89 157.982 247.207 159.272 247.58 161.658C248.375 166.743 245.212 174.169 243.156 178.731C237.726 190.777 230.14 201.916 223.543 213.351C216.025 226.382 209.069 240.142 200.56 252.53C199.538 247.578 198.453 242.64 197.303 237.715C194.684 227.836 192.159 218.166 183.678 211.605C179.093 208.058 173.552 206.236 167.83 205.639C157.71 204.581 147.042 206.752 137.009 208.095L103.526 212.541C95.9926 205.281 78.4218 198.47 68.9862 191.432C64.6704 188.213 60.5499 183.405 59.9237 177.874C59.6923 175.828 60.1735 173.961 60.9171 172.07C64.3937 163.226 70.1397 154.777 74.9342 146.556C79.2903 139.087 83.8023 131.726 88.2421 124.308C92.9855 116.38 97.458 108.639 103.051 101.247C107.246 95.7041 109.965 92.4597 117.152 91.4688Z" fill="white"/>
<path d="M151.942 225.643C156.868 225.049 162.201 225.44 167.161 225.559C167.987 226.029 168.8 226.518 169.549 227.106C173.605 230.292 176.041 235.886 177.55 240.698C182.326 255.923 183.879 279.179 185.561 295.397C186.485 304.315 187.886 313.255 189.058 322.149C180.458 315.52 173.659 306.733 162.416 304.672C155.758 303.453 147.321 303.752 140.912 306.067C128.411 310.585 103.925 332.937 92.7384 342.575C88.9046 345.878 85.055 349.678 80.8658 352.487C80.7375 352.573 80.6067 352.656 80.4776 352.741L72.318 353.416C64.3621 354.405 40.8918 358.269 34.813 355.231C31.9022 353.777 29.9371 351.061 29.077 347.998C25.4495 335.077 24.6899 317.052 23.2564 303.401C21.8195 289.719 18.8299 271.978 19.7378 258.626C19.9717 255.556 20.9191 252.582 22.5044 249.941C24.3462 246.842 28.4021 242.684 32.0313 241.83C37.1511 240.625 42.3145 240.319 47.5256 239.755C54.0915 239.052 60.6432 238.228 67.1789 237.282L118.158 230.176C129.397 228.595 140.636 226.653 151.942 225.643Z" fill="white"/>
<path d="M153.307 323.204C154.068 323.188 154.849 323.175 155.603 323.288C167.929 325.131 212.104 372.48 221.095 384.223C211.535 381.718 201.489 381.74 191.941 384.287C185.87 385.946 180.795 389.187 176.709 393.978C165.446 407.184 160.669 433.438 156.721 450.209C155.049 457.31 153.547 465.503 149.746 471.795C147.778 475.051 123.906 494.508 119.764 497.081C116.605 499.044 113.511 500.434 109.886 501.274C107.199 501.312 104.984 501.068 102.569 499.809C99.6604 498.296 97.0926 495.555 94.8626 493.181C89.13 487.082 84.0371 480.263 78.5912 473.896C70.7334 464.824 63.1002 455.561 55.7002 446.112C51.9041 441.357 47.8231 436.654 44.4295 431.608C43.0705 429.589 41.984 427.443 41.2463 425.116C40.1505 421.661 40.1128 418.612 41.9211 415.44C44.2987 411.267 47.8331 407.667 51.2234 404.315C66.104 389.606 82.9514 376.387 98.9596 362.903C112.347 351.625 125.329 339.359 139.864 329.574C144.102 326.721 148.399 324.619 153.307 323.204Z" fill="white"/>
<path d="M274.625 20.6167C277.617 20.3492 280.628 20.8531 283.369 22.0796C286.54 23.4897 289.703 25.9846 291.637 28.8895C297.242 37.3056 300.356 48.0364 304.458 57.2725C316.478 84.3317 328.699 111.277 338.941 139.087C341.581 146.256 344.619 154.443 340.932 161.839C334.833 174.076 297.213 186.226 284.762 191.207C273.544 195.695 262.484 200.672 251.089 204.696C252.53 201.551 254.357 198.54 256.041 195.517C262.882 183.408 270.584 170.186 266.621 155.73C262.659 141.274 243.969 133.246 231.921 126.708C222.234 121.451 212.303 116.486 202.769 110.963C201.16 107.91 200.281 104.381 198.945 101.189C194.909 91.539 187.358 77.1111 185.915 66.9964C185.33 62.9087 185.829 59.4438 188.428 56.1323C189.978 54.158 191.823 52.9609 194.049 51.8651C199.302 49.2805 205.005 47.3381 210.465 45.2238L238.098 34.4854C249.545 29.9902 262.602 22.3261 274.625 20.6167Z" fill="white"/>
<path d="M345.156 407.844C346.111 408.644 344.386 411.413 343.942 412.334C338.771 423.058 333.204 431.868 336.02 444.228C342.393 472.204 378.562 487.068 400.749 500.919C404.876 513.236 410.407 525.127 415.011 537.278C417.244 543.174 419.488 550.371 416.571 556.424C415.216 559.236 413.023 561.114 410.457 562.781C402.051 568.24 391.746 571.711 382.482 575.483C370.066 580.66 357.565 585.632 344.985 590.395C338.637 592.957 329.742 596.013 322.99 593.481C316.028 590.869 312.883 582.411 310.166 576.121C301.735 556.601 294.69 536.513 286.93 516.725C282.795 506.182 278.575 495.688 274.58 485.09C271.746 477.569 268.754 469.962 267.033 462.093C266.062 457.646 265.418 452.707 267.254 448.393C269.571 442.948 275.486 438.614 280.369 435.58C285.676 432.284 291.629 429.896 297.318 427.334C312.974 420.284 329.113 413.965 345.156 407.844Z" fill="white"/>
<path d="M551.364 264.645C556.132 264.485 561.335 264.327 565.875 266.005C569.413 267.313 572.229 269.483 573.816 272.932C575.405 276.385 576.238 280.14 576.753 283.89C578.68 297.933 578.639 312.505 579.223 326.661C579.647 336.957 580.772 347.244 580.428 357.559C580.306 361.199 580.067 364.997 578.73 368.419C576.949 372.977 573.694 377.136 569.121 379.089C566.333 380.279 563.326 380.927 560.319 381.246C553.411 381.978 546.356 382.058 539.413 382.389L499.56 384.189C480.698 385.042 460.114 387.023 441.428 386.414C437.056 386.272 433.037 385.705 428.95 384.125C427.325 383.183 425.852 382.265 424.508 380.928C422.473 378.902 421.092 376.561 420.2 373.844C417.985 367.098 417.665 359.7 416.994 352.674C415.171 333.589 414.484 314.582 414.286 295.415C417.595 298.734 420.867 302.147 424.312 305.323C430.581 311.103 437.383 313.714 445.887 313.95C463.599 314.44 474.293 305.056 487.039 294.277L507.689 276.714C511.639 273.348 516.083 268.721 520.875 266.694C525.047 264.929 546.034 264.879 551.364 264.645Z" fill="white"/>
<path d="M498.14 119.077C501.017 118.819 503.558 119.353 506.156 120.629C509.168 122.108 511.557 124.299 513.837 126.711C520.668 133.939 526.467 142.364 532.585 150.209C540.844 160.797 559.588 182.288 563.692 193.909C564.563 196.375 565.353 198.951 564.086 201.404C562.936 203.632 561.166 205.705 559.387 207.456C553.358 213.392 546.762 218.867 540.328 224.36C527.343 235.313 514.245 246.132 501.036 256.814C494.513 262.113 488.018 267.447 481.554 272.819C475.846 277.587 470.23 282.542 464.123 286.798C459.832 289.787 455.436 291.939 450.473 293.566C448.102 294.003 445.883 294.259 443.494 293.775C441.133 293.295 439.039 292.214 437.126 290.772C433.253 287.853 429.954 283.937 426.672 280.382C412.242 264.464 399.004 247.503 387.065 229.64C400.606 232.372 412.268 235.858 424.797 228.012C429.325 225.178 433.138 221.336 435.936 216.785C443.848 203.667 453.927 163.963 457.671 147.615C467.932 139.569 486.839 122.859 498.14 119.077Z" fill="white"/>
<path d="M205.164 402.527C222.104 402.899 239.432 407.235 256.01 410.511C263.107 411.913 270.586 412.823 277.442 415.165C265.991 421.409 254.409 427.687 249.391 440.458C247.244 445.924 246.083 452.251 246.512 458.126C247.727 474.808 262.963 510.631 270.023 526.977C266.422 539.081 260.797 569.34 254.279 578.523C252.086 579.513 250.109 580.046 247.762 580.48C244.283 580.809 241.109 580.673 237.663 580.053C227.685 578.256 217.668 574.78 207.929 571.958C194.378 568.029 180.218 564.423 167.115 559.196C164.072 557.982 161.081 556.551 158.448 554.581C154.897 551.924 153.728 549.702 153.153 545.367C152.646 541.535 153.165 537.89 153.936 534.132C156.827 520.02 161.798 506.292 165.44 492.356L176.875 448.9C179.215 440.008 181.27 430.894 184.191 422.175C185.624 417.898 187.543 412.992 190.421 409.471C194.238 404.801 199.356 403.028 205.164 402.527Z" fill="white"/>
<path d="M360.042 35.2674C362.905 34.9647 365.368 35.0477 368.182 35.6329C378.915 37.8645 389.474 41.6597 399.991 44.749C408.792 47.3345 447.927 57.3041 453.474 62.0508C456.186 64.3713 457.46 68.2344 457.594 71.706C457.689 74.1506 457.316 76.5642 456.759 78.9367C455.123 85.9118 452.8 92.8323 450.791 99.721C447.994 109.288 445.33 118.894 442.796 128.535L430.506 172.789C428.224 180.977 426.279 189.545 423.453 197.55C422.14 201.272 420.802 204.286 418.048 207.162C414.107 211.276 409.771 212.756 404.194 212.892C398.785 212.232 393.527 211.3 388.219 210.086C374.97 207.057 361.896 203.061 348.843 199.29C344.179 197.942 339.13 197.138 334.587 195.537C333.33 195.094 332.391 194.696 331.42 193.778C331.107 192.072 333.299 191.313 334.652 190.665C337.754 189.18 341.036 188.082 344.086 186.479C350.583 183.063 357.191 176.377 360.134 169.606C368.137 151.186 355.547 129.963 349.024 112.99C345.06 102.674 341.472 92.222 337.445 81.9238C339.201 76.8157 340.835 71.6674 342.348 66.4823C344.122 60.1897 345.605 53.6799 348.235 47.6732C350.756 41.9196 354.043 37.6281 360.042 35.2674Z" fill="white"/>
</svg>
